<?xml version="1.0" encoding="UTF-8" standalone="no"?>
<svg
   width="1450"
   height="510"
   viewBox="0 0 1450 510"
   fill="none"
   version="1.1"
   id="svg21"
   xmlns="http://www.w3.org/2000/svg"
   xmlns:svg="http://www.w3.org/2000/svg">
  <g
     clip-path="url(#clip0_8475_16048)"
     id="g14">
    <path
       fill-rule="evenodd"
       clip-rule="evenodd"
       d="M269.34 306.8C254.58 315.06 238.04 319.19 219.73 319.19C201.42 319.19 184.89 315.06 170.12 306.8C155.36 298.24 143.69 286.44 135.13 271.39C126.86 256.34 122.73 239.22 122.73 220.04C122.73 200.86 126.86 183.74 135.13 168.69C143.69 153.64 155.36 141.98 170.12 133.72C184.88 125.16 201.42 120.88 219.73 120.88C238.04 120.88 254.57 125.16 269.34 133.72C284.1 141.98 295.62 153.64 303.89 168.69C312.45 183.74 316.73 200.86 316.73 220.04C316.73 239.22 312.45 256.34 303.89 271.39C295.62 286.44 284.11 298.24 269.34 306.8ZM132.48 359.47C158.46 373.34 187.55 380.27 219.73 380.27C251.91 380.27 280.85 373.34 306.54 359.47C332.23 345.6 352.45 326.57 367.22 302.37C381.98 277.88 389.37 250.43 389.37 220.04C389.37 189.65 381.99 162.35 367.22 138.15C352.46 113.66 332.23 94.4798 306.54 80.6098C280.85 66.7398 251.91 59.8098 219.73 59.8098C187.55 59.8098 158.46 66.7398 132.48 80.6098C106.79 94.4798 86.5696 113.66 71.7996 138.15C57.3296 162.35 50.0996 189.64 50.0996 220.04C50.0996 250.44 57.3296 277.88 71.7996 302.37C86.5696 326.57 106.8 345.6 132.48 359.47ZM438.88 0.799805H0.599609V439.27H438.88V0.799805Z"
       fill="white"
       id="path2"
       style="fill:#000000" />
    <path
       fill-rule="evenodd"
       clip-rule="evenodd"
       d="M761.01 123.86H860.42V65.6298H591.04V123.87H690V374.46H761.01V123.86ZM944.14 0.799805H505.86V439.27H944.14V0.799805Z"
       fill="white"
       id="path4"
       style="fill:#000000" />
    <path
       fill-rule="evenodd"
       clip-rule="evenodd"
       d="M1290.11 217.39C1278.9 226.51 1262.52 231.07 1240.98 231.07H1182.56V123.86H1240.98C1262.52 123.86 1278.89 128.57 1290.11 137.98C1301.32 147.1 1306.93 160.33 1306.93 177.69C1306.93 194.75 1301.32 207.98 1290.11 217.39ZM1316.23 79.2998C1296.17 70.1798 1272.41 65.6198 1244.97 65.6198H1110.87V374.44H1182.57V289.3H1244.97C1272.41 289.3 1296.16 284.89 1316.23 276.06C1336.59 266.94 1352.23 254 1363.14 237.24C1374.06 220.18 1379.52 200.33 1379.52 177.68C1379.52 154.74 1374.06 134.89 1363.14 118.12C1352.22 101.35 1336.58 88.4198 1316.23 79.2998ZM1449.41 0.799805H1011.13V439.27H1449.41V0.799805Z"
       fill="white"
       id="path6"
       style="fill:#000000" />
    <path
       d="M438.87 481.52H0.589844V509.2H438.87V481.52Z"
       fill="white"
       id="path8"
       style="fill:#000000" />
    <path
       d="M944.14 481.52H505.86V509.2H944.14V481.52Z"
       fill="#010EFF"
       id="path10" />
    <path
       d="M1449.4 481.52H1011.12V509.2H1449.4V481.52Z"
       fill="#FF010C"
       id="path12" />
  </g>
  <defs
     id="defs19">
    <clipPath
       id="clip0_8475_16048">
      <rect
         width="1450"
         height="510"
         fill="white"
         id="rect16" />
    </clipPath>
  </defs>
</svg>
