<svg viewBox="0 0 300 60" xmlns="http://www.w3.org/2000/svg">
<g fill="#7c87f6">
    <path d="M129.8 54.71C129.8 54.71 143.9 59.61 156.6 59.61C176.9 59.61 188.7 51.21 188.7 37.81C188.7 18.31 164.7 20.41 156.2 21.31C156.8 19.21 158.1 14.41 158.1 14.41H185.9V0.0100098H145.7L135.8 34.41C136.5 34.31 146.7 32.51 156 32.21C163.7 31.91 171.8 32.41 171.8 37.91C171.8 43.41 165.2 44.71 156.3 44.71C146.6 44.71 136.7 42.11 133.8 41.11C132.7 44.71 129.8 54.91 129.8 54.91V54.71Z"/>
    <path d="M55.2 15.31H36.2V58.61H18.9V15.31H0V0.0100098H55.3V15.31H55.2Z"/>
    <path d="M106.2 58.6L123.1 0H105.8L95.8 36.9L85.8 0H68.5L85.4 58.6H106.2Z"/>
    <path d="M206.47 39.7101V7.1001H216.58V42.0701C216.58 43.7501 217.39 44.2901 218.33 44.2901C219.27 44.2901 220.08 43.7501 220.08 42.0701V7.1001H230.19V39.7101C230.19 47.5901 226.75 52.1101 218.33 52.1101C209.91 52.1101 206.47 47.6001 206.47 39.7101Z"/>
    <path d="M234.23 7.1001H244.2L248.85 27.3801H249.32V7.1001H257.94V51.5701H248.78L243.39 31.2201H242.85V51.5701H234.23V7.1001Z"/>
    <path d="M261.99 7.1001H272.1V51.5701H261.99V7.1001Z"/>
    <path d="M274.79 39.7801V38.1601L285.3 37.6201V41.4601C285.3 43.6801 285.77 44.5601 287.12 44.5601C288.47 44.5601 288.94 43.2801 288.94 41.3301C288.94 38.3001 288.33 36.7501 286.18 35.1301L282.14 32.1001C277.76 28.8001 275.13 24.6201 275.13 18.8301C275.13 11.7501 278.9 6.57007 287.12 6.57007C295.34 6.57007 299.18 11.7601 299.18 20.3201V21.2001L289.07 21.7401V17.5601C289.07 14.9301 288.33 14.1201 287.25 14.1201C285.97 14.1201 285.43 15.3301 285.43 17.0801C285.43 20.0401 286.37 22.0701 289.2 24.2901L292.43 26.7801C297.22 30.4201 299.44 34.6601 299.44 39.9901C299.44 48.8801 293.85 52.1201 287.11 52.1201C280.37 52.1201 274.78 48.2801 274.78 39.7901L274.79 39.7801Z"/>
</g>
</svg>
